<mxfile host="" modified="2020-05-30T09:07:27.760Z" agent="5.0 (Windows NT 10.0; Win64; x64) AppleWebKit/537.36 (KHTML, like Gecko) Code/1.45.1 Chrome/78.0.3904.130 Electron/7.2.4 Safari/537.36" etag="petjZ-2RCxj-wY-UMxZ9" version="13.1.3">
    <diagram id="6hGFLwfOUW9BJ-s0fimq" name="Page-1">
        <mxGraphModel dx="208" dy="92" grid="1" gridSize="10" guides="1" tooltips="1" connect="1" arrows="1" fold="1" page="1" pageScale="1" pageWidth="827" pageHeight="1169" math="0" shadow="0">
            <root>
                <mxCell id="0"/>
                <mxCell id="1" parent="0"/>
                <mxCell id="25" value="" style="rounded=1;whiteSpace=wrap;html=1;fillColor=#d5e8d4;fontFamily=Lucida Console;fontSize=16;strokeColor=#82b366;" parent="1" vertex="1">
                    <mxGeometry x="80" y="320" width="80" height="70" as="geometry"/>
                </mxCell>
                <mxCell id="45" value="" style="rounded=1;whiteSpace=wrap;html=1;fillColor=#f8cecc;fontFamily=Lucida Console;fontSize=32;strokeColor=#b85450;" parent="1" vertex="1">
                    <mxGeometry x="100" y="340" width="60" height="40" as="geometry"/>
                </mxCell>
                <mxCell id="39" value="" style="rounded=1;whiteSpace=wrap;html=1;fillColor=#f8cecc;fontFamily=Lucida Console;fontSize=32;strokeColor=#b85450;" parent="1" vertex="1">
                    <mxGeometry x="100" y="430" width="60" height="70" as="geometry"/>
                </mxCell>
                <mxCell id="22" value="" style="rounded=1;whiteSpace=wrap;html=1;fillColor=#d5e8d4;fontFamily=Lucida Console;fontSize=16;strokeColor=#82b366;" parent="1" vertex="1">
                    <mxGeometry x="80" y="180" width="80" height="70" as="geometry"/>
                </mxCell>
                <mxCell id="5" value="" style="rounded=1;whiteSpace=wrap;html=1;fillColor=#f8cecc;fontFamily=Lucida Console;fontSize=32;strokeColor=#b85450;" parent="1" vertex="1">
                    <mxGeometry x="100" y="20" width="60" height="70" as="geometry"/>
                </mxCell>
                <mxCell id="2" value="&lt;div style=&quot;font-size: 32px&quot;&gt;&lt;span style=&quot;font-size: 32px&quot;&gt;fbceda&lt;/span&gt;&lt;/div&gt;" style="rounded=0;whiteSpace=wrap;html=1;fontSize=32;fontFamily=Lucida Console;align=center;fillColor=none;strokeColor=none;fontColor=#000000;" parent="1" vertex="1">
                    <mxGeometry x="40" y="40" width="120" height="40" as="geometry"/>
                </mxCell>
                <mxCell id="15" style="edgeStyle=orthogonalEdgeStyle;rounded=0;orthogonalLoop=1;jettySize=auto;html=1;exitX=0.5;exitY=0;exitDx=0;exitDy=0;strokeWidth=1;fontFamily=Lucida Console;fontSize=16;fontColor=#FF0000;entryX=0.5;entryY=1;entryDx=0;entryDy=0;strokeColor=#000000;" parent="1" source="14" target="16" edge="1">
                    <mxGeometry relative="1" as="geometry">
                        <mxPoint x="110" y="100" as="targetPoint"/>
                    </mxGeometry>
                </mxCell>
                <mxCell id="14" value="S[i+1]" style="rounded=0;whiteSpace=wrap;html=1;fillColor=none;fontFamily=Lucida Console;fontSize=16;fontColor=#FF0000;strokeColor=none;" parent="1" vertex="1">
                    <mxGeometry x="75" y="100" width="70" height="20" as="geometry"/>
                </mxCell>
                <mxCell id="16" value="" style="rounded=1;whiteSpace=wrap;html=1;fillColor=none;fontFamily=Lucida Console;fontSize=16;fontColor=#FF0000;strokeColor=#000000;" parent="1" vertex="1">
                    <mxGeometry x="100" y="40" width="20" height="40" as="geometry"/>
                </mxCell>
                <mxCell id="17" value="" style="rounded=1;whiteSpace=wrap;html=1;fillColor=#f8cecc;fontFamily=Lucida Console;fontSize=32;strokeColor=#b85450;" parent="1" vertex="1">
                    <mxGeometry x="100" y="200" width="60" height="40" as="geometry"/>
                </mxCell>
                <mxCell id="18" value="&lt;div style=&quot;font-size: 32px&quot;&gt;&lt;span style=&quot;font-size: 32px&quot;&gt;fbceda&lt;/span&gt;&lt;/div&gt;" style="rounded=0;whiteSpace=wrap;html=1;fontSize=32;fontFamily=Lucida Console;align=center;fillColor=none;strokeColor=none;fontColor=#000000;" parent="1" vertex="1">
                    <mxGeometry x="40" y="200" width="120" height="40" as="geometry"/>
                </mxCell>
                <mxCell id="19" style="edgeStyle=orthogonalEdgeStyle;rounded=0;orthogonalLoop=1;jettySize=auto;html=1;exitX=0.5;exitY=0;exitDx=0;exitDy=0;strokeWidth=1;fontFamily=Lucida Console;fontSize=16;fontColor=#FF0000;entryX=0.5;entryY=1;entryDx=0;entryDy=0;strokeColor=#000000;" parent="1" source="20" target="21" edge="1">
                    <mxGeometry relative="1" as="geometry">
                        <mxPoint x="110" y="260" as="targetPoint"/>
                    </mxGeometry>
                </mxCell>
                <mxCell id="20" value="S[i]" style="rounded=0;whiteSpace=wrap;html=1;fillColor=none;fontFamily=Lucida Console;fontSize=16;fontColor=#009900;strokeColor=none;labelBackgroundColor=none;" parent="1" vertex="1">
                    <mxGeometry x="55" y="260" width="70" height="20" as="geometry"/>
                </mxCell>
                <mxCell id="21" value="" style="rounded=1;whiteSpace=wrap;html=1;fillColor=none;fontFamily=Lucida Console;fontSize=16;fontColor=#FF0000;strokeColor=#000000;" parent="1" vertex="1">
                    <mxGeometry x="80" y="200" width="20" height="40" as="geometry"/>
                </mxCell>
                <mxCell id="23" value="e&amp;gt;d&amp;gt;a" style="rounded=0;whiteSpace=wrap;html=1;fillColor=none;fontFamily=Lucida Console;fontSize=16;fontColor=#FF0000;strokeColor=none;" parent="1" vertex="1">
                    <mxGeometry x="90" y="20" width="80" height="20" as="geometry"/>
                </mxCell>
                <mxCell id="24" value="&lt;font color=&quot;#009900&quot;&gt;c&amp;lt;e&lt;/font&gt;" style="rounded=0;whiteSpace=wrap;html=1;fillColor=none;fontFamily=Lucida Console;fontSize=16;fontColor=#FF0000;strokeColor=none;" parent="1" vertex="1">
                    <mxGeometry x="80" y="180" width="40" height="20" as="geometry"/>
                </mxCell>
                <mxCell id="27" value="&lt;div style=&quot;font-size: 32px&quot;&gt;&lt;span style=&quot;font-size: 32px&quot;&gt;fbceda&lt;/span&gt;&lt;/div&gt;" style="rounded=0;whiteSpace=wrap;html=1;fontSize=32;fontFamily=Lucida Console;align=center;fillColor=none;strokeColor=none;fontColor=#000000;" parent="1" vertex="1">
                    <mxGeometry x="40" y="340" width="120" height="40" as="geometry"/>
                </mxCell>
                <mxCell id="28" style="edgeStyle=orthogonalEdgeStyle;rounded=0;orthogonalLoop=1;jettySize=auto;html=1;exitX=0.5;exitY=1;exitDx=0;exitDy=0;strokeWidth=1;fontFamily=Lucida Console;fontSize=16;fontColor=#FF0000;entryX=0.5;entryY=1;entryDx=0;entryDy=0;startArrow=classic;startFill=1;strokeColor=#000000;" parent="1" source="32" target="30" edge="1">
                    <mxGeometry relative="1" as="geometry">
                        <mxPoint x="110" y="400" as="targetPoint"/>
                        <mxPoint x="90" y="400" as="sourcePoint"/>
                    </mxGeometry>
                </mxCell>
                <mxCell id="30" value="" style="rounded=1;whiteSpace=wrap;html=1;fillColor=none;fontFamily=Lucida Console;fontSize=16;fontColor=#FF0000;strokeColor=#000000;" parent="1" vertex="1">
                    <mxGeometry x="80" y="340" width="20" height="40" as="geometry"/>
                </mxCell>
                <mxCell id="32" value="" style="rounded=1;whiteSpace=wrap;html=1;fillColor=none;fontFamily=Lucida Console;fontSize=16;fontColor=#FF0000;strokeColor=#000000;" parent="1" vertex="1">
                    <mxGeometry x="120" y="340" width="20" height="40" as="geometry"/>
                </mxCell>
                <mxCell id="35" value="&lt;div style=&quot;font-size: 32px&quot;&gt;&lt;span style=&quot;font-size: 32px&quot;&gt;fbdeca&lt;/span&gt;&lt;/div&gt;" style="rounded=0;whiteSpace=wrap;html=1;fontSize=32;fontFamily=Lucida Console;align=center;fillColor=none;strokeColor=none;fontColor=#000000;" parent="1" vertex="1">
                    <mxGeometry x="40" y="450" width="120" height="40" as="geometry"/>
                </mxCell>
                <mxCell id="38" value="" style="rounded=1;whiteSpace=wrap;html=1;fillColor=none;fontFamily=Lucida Console;fontSize=16;fontColor=#FF0000;strokeColor=#000000;" parent="1" vertex="1">
                    <mxGeometry x="120" y="450" width="20" height="40" as="geometry"/>
                </mxCell>
                <mxCell id="40" value="e&amp;gt;c&amp;gt;a" style="rounded=0;whiteSpace=wrap;html=1;fillColor=none;fontFamily=Lucida Console;fontSize=16;fontColor=#FF0000;strokeColor=none;" parent="1" vertex="1">
                    <mxGeometry x="90" y="430" width="80" height="20" as="geometry"/>
                </mxCell>
                <mxCell id="41" value="" style="rounded=1;whiteSpace=wrap;html=1;fillColor=#f8cecc;fontFamily=Lucida Console;fontSize=32;strokeColor=#b85450;" parent="1" vertex="1">
                    <mxGeometry x="100" y="560" width="60" height="60" as="geometry"/>
                </mxCell>
                <mxCell id="42" value="&lt;div style=&quot;font-size: 32px&quot;&gt;&lt;span style=&quot;font-size: 32px&quot;&gt;fbdace&lt;/span&gt;&lt;/div&gt;" style="rounded=0;whiteSpace=wrap;html=1;fontSize=32;fontFamily=Lucida Console;align=center;fillColor=none;strokeColor=none;fontColor=#000000;" parent="1" vertex="1">
                    <mxGeometry x="40" y="580" width="120" height="40" as="geometry"/>
                </mxCell>
                <mxCell id="44" value="a&amp;lt;c&amp;lt;e" style="rounded=0;whiteSpace=wrap;html=1;fillColor=none;fontFamily=Lucida Console;fontSize=16;fontColor=#FF0000;strokeColor=none;" parent="1" vertex="1">
                    <mxGeometry x="90" y="560" width="80" height="20" as="geometry"/>
                </mxCell>
                <mxCell id="46" value="c &amp;lt; d" style="rounded=0;whiteSpace=wrap;html=1;fillColor=none;fontFamily=Lucida Console;fontSize=16;fontColor=#009900;strokeColor=none;labelBackgroundColor=none;" parent="1" vertex="1">
                    <mxGeometry x="75" y="320" width="70" height="20" as="geometry"/>
                </mxCell>
            </root>
        </mxGraphModel>
    </diagram>
</mxfile>